Source: The.Conversation.1974.720p.BluRay.X264-AMIABLE


Subs: Bulgarian, Dutch, English, Finnish, French, Romanian and Spanish.

Sample and Screens included.

General
Complete name                    : The Conversation-720p MP4 AAC x264 BRRip 1974-CC.mp4
Format                           : MPEG-4
Format profile                   : Base Media
Codec ID                         : isom
File size                        : 2.04 GiB
Duration                         : 1h 53mn
Overall bit rate                 : 2 570 Kbps
Encoded date                     : UTC 2012-06-09 08:38:44

Video
ID                               : 1
Format                           : AVC
Format/Info                      : Advanced Video Codec
Format profile                   : High@L3.1
Format settings, CABAC           : Yes
Format settings, ReFrames        : 5 frames
Codec ID                         : avc1
Codec ID/Info                    : Advanced Video Coding
Duration                         : 1h 53mn
Bit rate mode                    : Variable
Bit rate                         : 2 179 Kbps
Maximum bit rate                 : 14.6 Mbps
Width                            : 1 280 pixels
Height                           : 720 pixels
Display aspect ratio             : 16:9
Frame rate mode                  : Variable
Frame rate                       : 23.976 fps
Minimum frame rate               : 19.048 fps
Maximum frame rate               : 25.000 fps
Resolution                       : 24 bits
Colorimetry                      : 4:2:0
Scan type                        : Progressive
Bits/(Pixel*Frame)               : 0.099
Stream size                      : 1.73 GiB (85%)
Writing library                  : x264 core 112

Audio
ID                               : 2
Format                           : AAC
Format/Info                      : Advanced Audio Codec
Format version                   : Version 4
Format profile                   : LC
Format settings, SBR             : No
Codec ID                         : 40
Duration                         : 1h 53mn
Bit rate mode                    : Variable
Bit rate                         : 384 Kbps
Maximum bit rate                 : 719 Kbps
Channel(s)                       : 6 channels
Channel positions                : Front: L C R, Rear: L R, LFE
Sampling rate                    : 48.0 KHz
Resolution                       : 16 bits
Stream size                      : 312 MiB (15%)
Language                         : English

Enjoy...

Requested by DreamExtractor.

Upcoming: Point Break and 'The Orphanage [El Orfonato]. (requested by alorati).